<?xml version="1.0" encoding="UTF-8"?>
<svg xmlns="http://www.w3.org/2000/svg" viewBox="0 0 860 520" width="860" height="520" role="img" aria-label="Custom Flow Card preview">
  <defs>
    <linearGradient id="bg" x1="0" y1="0" x2="0" y2="1">
      <stop offset="0%" stop-color="#f9fbff"/>
      <stop offset="100%" stop-color="#eef3fb"/>
    </linearGradient>
    <filter id="softShadow" x="-20%" y="-20%" width="140%" height="140%">
      <feDropShadow dx="0" dy="3" stdDeviation="4" flood-color="#000000" flood-opacity="0.25"/>
    </filter>
    <marker id="arrow" markerWidth="10" markerHeight="10" refX="9" refY="5" orient="auto">
      <path d="M0,0 L10,5 L0,10 z" fill="#7af2a0"/>
    </marker>
  </defs>

  <rect x="20" y="20" width="820" height="480" rx="18" fill="url(#bg)" stroke="#c7d3e5" stroke-width="2" filter="url(#softShadow)"/>
  <text x="56" y="70" fill="#24344f" font-size="30" font-family="Segoe UI, Arial, sans-serif" font-weight="600">V-Guard Inverter Flow</text>

  <line x1="180" y1="235" x2="390" y2="235" stroke="#b7c2d4" stroke-width="6" stroke-linecap="round" marker-end="url(#arrow)" opacity="0.35"/>
  <line x1="390" y1="100" x2="390" y2="190" stroke="#7af2a0" stroke-width="6" stroke-linecap="round" marker-end="url(#arrow)"/>
  <line x1="390" y1="375" x2="390" y2="280" stroke="#7af2a0" stroke-width="6" stroke-linecap="round" marker-end="url(#arrow)"/>
  <line x1="430" y1="235" x2="640" y2="235" stroke="#7af2a0" stroke-width="6" stroke-linecap="round" marker-end="url(#arrow)"/>

  <g font-family="Segoe UI, Arial, sans-serif" font-size="13" font-weight="600">
    <rect x="246" y="208" width="168" height="28" rx="14" fill="#ffffff" stroke="#b7c2d4"/>
    <text x="330" y="227" text-anchor="middle" fill="#41526f">Grid: mains cutoff</text>
    <rect x="302" y="137" width="176" height="28" rx="14" fill="#ffffff" stroke="#d8c36c"/>
    <text x="390" y="156" text-anchor="middle" fill="#41526f">Solar -&gt; Inverter: 420 W</text>
    <rect x="286" y="316" width="208" height="28" rx="14" fill="#ffffff" stroke="#be8de8"/>
    <text x="390" y="335" text-anchor="middle" fill="#41526f">Battery -&gt; Inverter: 280 W</text>
    <rect x="490" y="254" width="202" height="28" rx="14" fill="#ffffff" stroke="#f5b481"/>
    <text x="591" y="273" text-anchor="middle" fill="#41526f">Inverter -&gt; Load: 700 W</text>
  </g>

  <g transform="translate(110,170)">
    <circle cx="0" cy="0" r="64" fill="#ffffff" stroke="#8cb5e8" stroke-width="3"/>
    <text x="0" y="-6" text-anchor="middle" fill="#2e69aa" font-size="15" font-family="Segoe UI, Arial">Grid</text>
    <text x="0" y="18" text-anchor="middle" fill="#1e2c43" font-size="16" font-family="Segoe UI, Arial" font-weight="700">Cutoff</text>
  </g>

  <g transform="translate(390,88)">
    <circle cx="0" cy="0" r="64" fill="#ffffff" stroke="#d8c36c" stroke-width="3"/>
    <text x="0" y="-6" text-anchor="middle" fill="#9c7f13" font-size="15" font-family="Segoe UI, Arial">Solar</text>
    <text x="0" y="18" text-anchor="middle" fill="#1e2c43" font-size="16" font-family="Segoe UI, Arial" font-weight="700">420 W</text>
  </g>

  <g transform="translate(390,235)">
    <circle cx="0" cy="0" r="64" fill="#ffffff" stroke="#8d9bff" stroke-width="3"/>
    <text x="0" y="-6" text-anchor="middle" fill="#3a49a8" font-size="15" font-family="Segoe UI, Arial">Inverter</text>
    <text x="0" y="18" text-anchor="middle" fill="#1e2c43" font-size="16" font-family="Segoe UI, Arial" font-weight="700">700 W</text>
  </g>

  <g transform="translate(390,383)">
    <circle cx="0" cy="0" r="64" fill="#ffffff" stroke="#be8de8" stroke-width="3"/>
    <text x="0" y="-6" text-anchor="middle" fill="#7f39aa" font-size="15" font-family="Segoe UI, Arial">Battery</text>
    <text x="0" y="18" text-anchor="middle" fill="#1e2c43" font-size="16" font-family="Segoe UI, Arial" font-weight="700">280 W out</text>
  </g>

  <g transform="translate(710,235)">
    <circle cx="0" cy="0" r="64" fill="#ffffff" stroke="#f5b481" stroke-width="3"/>
    <text x="0" y="-6" text-anchor="middle" fill="#c86b1f" font-size="15" font-family="Segoe UI, Arial">Load</text>
    <text x="0" y="18" text-anchor="middle" fill="#1e2c43" font-size="16" font-family="Segoe UI, Arial" font-weight="700">700 W</text>
  </g>

  <rect x="56" y="430" width="748" height="52" rx="10" fill="#ffffff" stroke="#d6dfef"/>
  <text x="90" y="461" fill="#41526f" font-size="15" font-family="Segoe UI, Arial" font-weight="600">Mains cutoff | Load 700 W from solar 420 W + battery 280 W</text>
</svg>
